<svg width="240" height="77" viewBox="0 0 240 77" fill="none" xmlns="http://www.w3.org/2000/svg">
<path d="M7.04 52C6.57067 52 6.208 51.872 5.952 51.616C5.696 51.3173 5.568 50.9547 5.568 50.528V8.736C5.568 8.26666 5.696 7.904 5.952 7.648C6.208 7.34933 6.57067 7.2 7.04 7.2H21.568C25.9627 7.2 29.504 7.86133 32.192 9.184C34.88 10.5067 36.8427 12.4693 38.08 15.072C39.3173 17.632 39.9573 20.7893 40 24.544C40.0427 26.464 40.064 28.1493 40.064 29.6C40.064 31.0507 40.0427 32.7147 40 34.592C39.9147 38.5173 39.2533 41.7813 38.016 44.384C36.8213 46.944 34.9013 48.864 32.256 50.144C29.6533 51.3813 26.1973 52 21.888 52H7.04ZM11.84 46.56H21.568C24.512 46.56 26.8587 46.1547 28.608 45.344C30.3573 44.5333 31.616 43.232 32.384 41.44C33.1947 39.648 33.6213 37.28 33.664 34.336C33.7493 33.056 33.792 31.9467 33.792 31.008C33.792 30.0267 33.792 29.0667 33.792 28.128C33.792 27.1467 33.7493 26.0373 33.664 24.8C33.5787 20.6613 32.5973 17.6107 30.72 15.648C28.8427 13.6427 25.6853 12.64 21.248 12.64H11.84V46.56ZM64.541 52.64C62.4077 52.64 60.4663 52.2133 58.717 51.36C56.9677 50.5067 55.5597 49.3547 54.493 47.904C53.4263 46.4533 52.893 44.8107 52.893 42.976C52.893 40.032 54.0877 37.6853 56.477 35.936C58.8663 34.1867 61.981 33.0347 65.821 32.48L75.357 31.136V29.28C75.357 27.232 74.7597 25.632 73.565 24.48C72.413 23.328 70.5143 22.752 67.869 22.752C65.949 22.752 64.3917 23.136 63.197 23.904C62.045 24.672 61.2343 25.6533 60.765 26.848C60.509 27.488 60.061 27.808 59.421 27.808H56.541C56.0717 27.808 55.709 27.68 55.453 27.424C55.2397 27.1253 55.133 26.784 55.133 26.4C55.133 25.76 55.3677 24.9707 55.837 24.032C56.349 23.0933 57.117 22.176 58.141 21.28C59.165 20.384 60.4663 19.6373 62.045 19.04C63.6663 18.4 65.629 18.08 67.933 18.08C70.493 18.08 72.6477 18.4213 74.397 19.104C76.1463 19.744 77.5117 20.6187 78.493 21.728C79.517 22.8373 80.2423 24.096 80.669 25.504C81.1383 26.912 81.373 28.3413 81.373 29.792V50.528C81.373 50.9547 81.2237 51.3173 80.925 51.616C80.669 51.872 80.3277 52 79.901 52H76.957C76.4877 52 76.125 51.872 75.869 51.616C75.613 51.3173 75.485 50.9547 75.485 50.528V47.776C74.9303 48.544 74.1837 49.312 73.245 50.08C72.3063 50.8053 71.133 51.424 69.725 51.936C68.317 52.4053 66.589 52.64 64.541 52.64ZM65.885 47.84C67.6343 47.84 69.2343 47.4773 70.685 46.752C72.1357 45.984 73.2663 44.8107 74.077 43.232C74.9303 41.6533 75.357 39.6693 75.357 37.28V35.488L67.933 36.576C64.9037 37.0027 62.621 37.728 61.085 38.752C59.549 39.7333 58.781 40.992 58.781 42.528C58.781 43.7227 59.1223 44.7253 59.805 45.536C60.5303 46.304 61.4263 46.88 62.493 47.264C63.6023 47.648 64.733 47.84 65.885 47.84ZM105.681 52C105.126 52 104.699 51.872 104.401 51.616C104.102 51.3173 103.846 50.912 103.633 50.4L94.5445 20.704C94.4592 20.4907 94.4165 20.2773 94.4165 20.064C94.4165 19.68 94.5445 19.36 94.8005 19.104C95.0992 18.848 95.4192 18.72 95.7605 18.72H98.5765C99.0458 18.72 99.4085 18.848 99.6645 19.104C99.9205 19.36 100.091 19.5947 100.177 19.808L107.281 43.936L114.897 20.064C114.982 19.7653 115.153 19.4667 115.409 19.168C115.707 18.8693 116.134 18.72 116.689 18.72H118.865C119.419 18.72 119.846 18.8693 120.145 19.168C120.443 19.4667 120.614 19.7653 120.657 20.064L128.273 43.936L135.377 19.808C135.419 19.5947 135.569 19.36 135.825 19.104C136.081 18.848 136.443 18.72 136.913 18.72H139.729C140.113 18.72 140.433 18.848 140.689 19.104C140.945 19.36 141.073 19.68 141.073 20.064C141.073 20.2773 141.03 20.4907 140.945 20.704L131.857 50.4C131.729 50.912 131.494 51.3173 131.153 51.616C130.854 51.872 130.406 52 129.809 52H127.313C126.758 52 126.289 51.872 125.905 51.616C125.563 51.3173 125.329 50.912 125.201 50.4L117.777 27.488L110.353 50.4C110.182 50.912 109.926 51.3173 109.585 51.616C109.243 51.872 108.774 52 108.177 52H105.681ZM156.097 52C155.67 52 155.308 51.872 155.009 51.616C154.753 51.3173 154.625 50.9547 154.625 50.528V8.032C154.625 7.60533 154.753 7.264 155.009 7.008C155.308 6.70933 155.67 6.56 156.097 6.56H159.105C159.574 6.56 159.937 6.70933 160.193 7.008C160.449 7.264 160.577 7.60533 160.577 8.032V50.528C160.577 50.9547 160.449 51.3173 160.193 51.616C159.937 51.872 159.574 52 159.105 52H156.097ZM185.804 52.64C183.67 52.64 181.729 52.2133 179.98 51.36C178.23 50.5067 176.822 49.3547 175.756 47.904C174.689 46.4533 174.156 44.8107 174.156 42.976C174.156 40.032 175.35 37.6853 177.74 35.936C180.129 34.1867 183.244 33.0347 187.084 32.48L196.62 31.136V29.28C196.62 27.232 196.022 25.632 194.828 24.48C193.676 23.328 191.777 22.752 189.132 22.752C187.212 22.752 185.654 23.136 184.46 23.904C183.308 24.672 182.497 25.6533 182.028 26.848C181.772 27.488 181.324 27.808 180.684 27.808H177.804C177.334 27.808 176.972 27.68 176.716 27.424C176.502 27.1253 176.396 26.784 176.396 26.4C176.396 25.76 176.63 24.9707 177.1 24.032C177.612 23.0933 178.38 22.176 179.404 21.28C180.428 20.384 181.729 19.6373 183.308 19.04C184.929 18.4 186.892 18.08 189.196 18.08C191.756 18.08 193.91 18.4213 195.66 19.104C197.409 19.744 198.774 20.6187 199.756 21.728C200.78 22.8373 201.505 24.096 201.932 25.504C202.401 26.912 202.636 28.3413 202.636 29.792V50.528C202.636 50.9547 202.486 51.3173 202.188 51.616C201.932 51.872 201.59 52 201.164 52H198.22C197.75 52 197.388 51.872 197.132 51.616C196.876 51.3173 196.748 50.9547 196.748 50.528V47.776C196.193 48.544 195.446 49.312 194.508 50.08C193.569 50.8053 192.396 51.424 190.988 51.936C189.58 52.4053 187.852 52.64 185.804 52.64ZM187.148 47.84C188.897 47.84 190.497 47.4773 191.948 46.752C193.398 45.984 194.529 44.8107 195.34 43.232C196.193 41.6533 196.62 39.6693 196.62 37.28V35.488L189.196 36.576C186.166 37.0027 183.884 37.728 182.348 38.752C180.812 39.7333 180.044 40.992 180.044 42.528C180.044 43.7227 180.385 44.7253 181.068 45.536C181.793 46.304 182.689 46.88 183.756 47.264C184.865 47.648 185.996 47.84 187.148 47.84ZM230.916 52C228.526 52 226.585 51.552 225.092 50.656C223.598 49.7173 222.51 48.416 221.828 46.752C221.145 45.0453 220.804 43.04 220.804 40.736V23.84H215.812C215.385 23.84 215.022 23.712 214.724 23.456C214.468 23.1573 214.34 22.7947 214.34 22.368V20.192C214.34 19.7653 214.468 19.424 214.724 19.168C215.022 18.8693 215.385 18.72 215.812 18.72H220.804V8.032C220.804 7.60533 220.932 7.264 221.188 7.008C221.486 6.70933 221.849 6.56 222.276 6.56H225.284C225.71 6.56 226.052 6.70933 226.308 7.008C226.606 7.264 226.756 7.60533 226.756 8.032V18.72H234.692C235.118 18.72 235.46 18.8693 235.716 19.168C236.014 19.424 236.164 19.7653 236.164 20.192V22.368C236.164 22.7947 236.014 23.1573 235.716 23.456C235.46 23.712 235.118 23.84 234.692 23.84H226.756V40.288C226.756 42.2933 227.097 43.872 227.78 45.024C228.462 46.176 229.678 46.752 231.428 46.752H235.332C235.758 46.752 236.1 46.9013 236.356 47.2C236.654 47.456 236.804 47.7973 236.804 48.224V50.528C236.804 50.9547 236.654 51.3173 236.356 51.616C236.1 51.872 235.758 52 235.332 52H230.916Z" fill="#359081"/>
<path d="M68.18 72.144C67.62 72.144 67.108 72.04 66.644 71.832C66.18 71.616 65.772 71.328 65.42 70.968L65.984 70.32C66.264 70.616 66.596 70.848 66.98 71.016C67.372 71.184 67.776 71.268 68.192 71.268C68.712 71.268 69.116 71.152 69.404 70.92C69.692 70.68 69.836 70.368 69.836 69.984C69.836 69.712 69.776 69.496 69.656 69.336C69.544 69.176 69.388 69.04 69.188 68.928C68.996 68.816 68.776 68.704 68.528 68.592L67.4 68.1C67.144 67.988 66.892 67.848 66.644 67.68C66.404 67.512 66.204 67.3 66.044 67.044C65.884 66.78 65.804 66.456 65.804 66.072C65.804 65.672 65.908 65.316 66.116 65.004C66.332 64.684 66.624 64.436 66.992 64.26C67.368 64.076 67.796 63.984 68.276 63.984C68.756 63.984 69.196 64.072 69.596 64.248C69.996 64.424 70.332 64.652 70.604 64.932L70.064 65.58C69.816 65.364 69.544 65.192 69.248 65.064C68.952 64.928 68.628 64.86 68.276 64.86C67.836 64.86 67.48 64.964 67.208 65.172C66.944 65.38 66.812 65.66 66.812 66.012C66.812 66.26 66.876 66.464 67.004 66.624C67.132 66.784 67.296 66.916 67.496 67.02C67.704 67.124 67.912 67.224 68.12 67.32L69.236 67.8C69.548 67.936 69.824 68.092 70.064 68.268C70.312 68.444 70.504 68.664 70.64 68.928C70.784 69.192 70.856 69.516 70.856 69.9C70.856 70.316 70.748 70.696 70.532 71.04C70.324 71.376 70.016 71.644 69.608 71.844C69.208 72.044 68.732 72.144 68.18 72.144ZM75.3102 72.144C74.6542 72.144 74.0702 71.976 73.5582 71.64C73.0542 71.304 72.6582 70.828 72.3702 70.212C72.0902 69.596 71.9502 68.868 71.9502 68.028C71.9502 67.188 72.0902 66.468 72.3702 65.868C72.6582 65.26 73.0542 64.796 73.5582 64.476C74.0702 64.148 74.6542 63.984 75.3102 63.984C75.9742 63.984 76.5582 64.148 77.0622 64.476C77.5662 64.796 77.9622 65.26 78.2502 65.868C78.5382 66.468 78.6822 67.188 78.6822 68.028C78.6822 68.868 78.5382 69.596 78.2502 70.212C77.9622 70.828 77.5662 71.304 77.0622 71.64C76.5582 71.976 75.9742 72.144 75.3102 72.144ZM75.3102 71.256C75.7822 71.256 76.1902 71.124 76.5342 70.86C76.8862 70.596 77.1582 70.224 77.3502 69.744C77.5422 69.256 77.6382 68.684 77.6382 68.028C77.6382 67.38 77.5422 66.82 77.3502 66.348C77.1582 65.876 76.8862 65.512 76.5342 65.256C76.1902 64.992 75.7822 64.86 75.3102 64.86C74.8462 64.86 74.4382 64.992 74.0862 65.256C73.7342 65.512 73.4622 65.876 73.2702 66.348C73.0782 66.82 72.9822 67.38 72.9822 68.028C72.9822 68.684 73.0782 69.256 73.2702 69.744C73.4622 70.224 73.7342 70.596 74.0862 70.86C74.4382 71.124 74.8462 71.256 75.3102 71.256ZM80.3749 72V64.128H84.9109V64.968H81.3709V67.632H84.3709V68.472H81.3709V72H80.3749ZM87.9366 72V64.98H85.5606V64.128H91.3206V64.98H88.9446V72H87.9366ZM93.5662 72L91.9342 64.128H93.0022L93.8062 68.412C93.8862 68.836 93.9622 69.26 94.0342 69.684C94.1062 70.108 94.1742 70.544 94.2382 70.992H94.2862C94.3662 70.544 94.4502 70.108 94.5382 69.684C94.6342 69.26 94.7302 68.836 94.8262 68.412L95.8942 64.128H96.9022L97.9342 68.412C98.0302 68.828 98.1262 69.252 98.2222 69.684C98.3182 70.108 98.4102 70.544 98.4982 70.992H98.5462C98.6102 70.544 98.6782 70.108 98.7502 69.684C98.8222 69.26 98.8942 68.836 98.9662 68.412L99.7942 64.128H100.814L99.1702 72H97.8862L96.7582 67.272C96.6942 66.976 96.6302 66.68 96.5662 66.384C96.5102 66.08 96.4542 65.76 96.3982 65.424H96.3502C96.3022 65.76 96.2462 66.08 96.1822 66.384C96.1262 66.68 96.0662 66.976 96.0022 67.272L94.8502 72H93.5662ZM101.128 72L103.792 64.128H104.92L107.584 72H106.528L105.148 67.596C105.004 67.156 104.868 66.72 104.74 66.288C104.612 65.848 104.484 65.4 104.356 64.944H104.308C104.188 65.4 104.064 65.848 103.936 66.288C103.808 66.72 103.672 67.156 103.528 67.596L102.136 72H101.128ZM102.52 69.6V68.808H106.156V69.6H102.52ZM108.687 72V64.128H111.147C111.683 64.128 112.159 64.2 112.575 64.344C112.991 64.48 113.315 64.712 113.547 65.04C113.787 65.36 113.907 65.792 113.907 66.336C113.907 66.864 113.787 67.3 113.547 67.644C113.315 67.988 112.991 68.248 112.575 68.424C112.159 68.592 111.683 68.676 111.147 68.676H109.683V72H108.687ZM109.683 67.86H111.003C111.619 67.86 112.091 67.736 112.419 67.488C112.747 67.232 112.911 66.848 112.911 66.336C112.911 65.824 112.747 65.464 112.419 65.256C112.091 65.04 111.619 64.932 111.003 64.932H109.683V67.86ZM113.007 72L110.955 68.4L111.735 67.872L114.135 72H113.007ZM115.519 72V64.128H120.055V64.968H116.515V67.44H119.503V68.292H116.515V71.148H120.175V72H115.519ZM124.25 72V64.128H128.786V64.968H125.246V67.44H128.234V68.292H125.246V71.148H128.906V72H124.25ZM130.578 72V64.128H131.67L134.466 69.024C134.618 69.288 134.762 69.564 134.898 69.852C135.034 70.132 135.17 70.42 135.306 70.716H135.354C135.33 70.308 135.302 69.892 135.27 69.468C135.238 69.036 135.222 68.62 135.222 68.22V64.128H136.182V72H135.09L132.294 67.104C132.15 66.84 132.002 66.564 131.85 66.276C131.706 65.988 131.57 65.7 131.442 65.412H131.394C131.426 65.804 131.454 66.208 131.478 66.624C131.51 67.04 131.526 67.46 131.526 67.884V72H130.578ZM141.444 72.144C140.748 72.144 140.132 71.984 139.596 71.664C139.068 71.336 138.652 70.868 138.348 70.26C138.044 69.652 137.892 68.92 137.892 68.064C137.892 67.432 137.98 66.864 138.156 66.36C138.34 65.856 138.592 65.428 138.912 65.076C139.24 64.716 139.624 64.444 140.064 64.26C140.504 64.076 140.984 63.984 141.504 63.984C142.048 63.984 142.504 64.084 142.872 64.284C143.248 64.484 143.548 64.708 143.772 64.956L143.22 65.58C143.028 65.372 142.796 65.2 142.524 65.064C142.26 64.928 141.928 64.86 141.528 64.86C141 64.86 140.54 64.992 140.148 65.256C139.756 65.512 139.452 65.876 139.236 66.348C139.028 66.82 138.924 67.384 138.924 68.04C138.924 68.704 139.024 69.276 139.224 69.756C139.432 70.236 139.728 70.608 140.112 70.872C140.504 71.136 140.98 71.268 141.54 71.268C141.82 71.268 142.088 71.228 142.344 71.148C142.6 71.06 142.804 70.944 142.956 70.8V68.748H141.288V67.92H143.868V71.232C143.62 71.496 143.284 71.716 142.86 71.892C142.444 72.06 141.972 72.144 141.444 72.144ZM145.754 72V64.128H146.75V72H145.754ZM148.906 72V64.128H149.998L152.794 69.024C152.946 69.288 153.09 69.564 153.226 69.852C153.362 70.132 153.498 70.42 153.634 70.716H153.682C153.658 70.308 153.63 69.892 153.598 69.468C153.566 69.036 153.55 68.62 153.55 68.22V64.128H154.51V72H153.418L150.622 67.104C150.478 66.84 150.33 66.564 150.178 66.276C150.034 65.988 149.898 65.7 149.77 65.412H149.722C149.754 65.804 149.782 66.208 149.806 66.624C149.838 67.04 149.854 67.46 149.854 67.884V72H148.906ZM156.676 72V64.128H161.212V64.968H157.672V67.44H160.66V68.292H157.672V71.148H161.332V72H156.676ZM163.004 72V64.128H167.54V64.968H164V67.44H166.988V68.292H164V71.148H167.66V72H163.004ZM169.332 72V64.128H171.792C172.328 64.128 172.804 64.2 173.22 64.344C173.636 64.48 173.96 64.712 174.192 65.04C174.432 65.36 174.552 65.792 174.552 66.336C174.552 66.864 174.432 67.3 174.192 67.644C173.96 67.988 173.636 68.248 173.22 68.424C172.804 68.592 172.328 68.676 171.792 68.676H170.328V72H169.332ZM170.328 67.86H171.648C172.264 67.86 172.736 67.736 173.064 67.488C173.392 67.232 173.556 66.848 173.556 66.336C173.556 65.824 173.392 65.464 173.064 65.256C172.736 65.04 172.264 64.932 171.648 64.932H170.328V67.86ZM173.652 72L171.6 68.4L172.38 67.872L174.78 72H173.652Z" fill="#359081"/>
<line x1="5" y1="68.5" x2="63" y2="68.5" stroke="#359081"/>
<line x1="178" y1="68.5" x2="236" y2="68.5" stroke="#359081"/>
</svg>
