<svg width="210" height="67" viewBox="0 0 210 67" fill="none" xmlns="http://www.w3.org/2000/svg">
<path d="M7.04 48C6.57067 48 6.208 47.872 5.952 47.616C5.696 47.3173 5.568 46.9547 5.568 46.528V4.736C5.568 4.26666 5.696 3.904 5.952 3.648C6.208 3.34933 6.57067 3.2 7.04 3.2H21.568C25.9627 3.2 29.504 3.86133 32.192 5.184C34.88 6.50667 36.8427 8.46933 38.08 11.072C39.3173 13.632 39.9573 16.7893 40 20.544C40.0427 22.464 40.064 24.1493 40.064 25.6C40.064 27.0507 40.0427 28.7147 40 30.592C39.9147 34.5173 39.2533 37.7813 38.016 40.384C36.8213 42.944 34.9013 44.864 32.256 46.144C29.6533 47.3813 26.1973 48 21.888 48H7.04ZM11.84 42.56H21.568C24.512 42.56 26.8587 42.1547 28.608 41.344C30.3573 40.5333 31.616 39.232 32.384 37.44C33.1947 35.648 33.6213 33.28 33.664 30.336C33.7493 29.056 33.792 27.9467 33.792 27.008C33.792 26.0267 33.792 25.0667 33.792 24.128C33.792 23.1467 33.7493 22.0373 33.664 20.8C33.5787 16.6613 32.5973 13.6107 30.72 11.648C28.8427 9.64267 25.6853 8.64 21.248 8.64H11.84V42.56ZM58.141 48.64C56.0077 48.64 54.0663 48.2133 52.317 47.36C50.5677 46.5067 49.1597 45.3547 48.093 43.904C47.0263 42.4533 46.493 40.8107 46.493 38.976C46.493 36.032 47.6877 33.6853 50.077 31.936C52.4663 30.1867 55.581 29.0347 59.421 28.48L68.957 27.136V25.28C68.957 23.232 68.3597 21.632 67.165 20.48C66.013 19.328 64.1143 18.752 61.469 18.752C59.549 18.752 57.9917 19.136 56.797 19.904C55.645 20.672 54.8343 21.6533 54.365 22.848C54.109 23.488 53.661 23.808 53.021 23.808H50.141C49.6717 23.808 49.309 23.68 49.053 23.424C48.8397 23.1253 48.733 22.784 48.733 22.4C48.733 21.76 48.9677 20.9707 49.437 20.032C49.949 19.0933 50.717 18.176 51.741 17.28C52.765 16.384 54.0663 15.6373 55.645 15.04C57.2663 14.4 59.229 14.08 61.533 14.08C64.093 14.08 66.2477 14.4213 67.997 15.104C69.7463 15.744 71.1117 16.6187 72.093 17.728C73.117 18.8373 73.8423 20.096 74.269 21.504C74.7383 22.912 74.973 24.3413 74.973 25.792V46.528C74.973 46.9547 74.8237 47.3173 74.525 47.616C74.269 47.872 73.9277 48 73.501 48H70.557C70.0877 48 69.725 47.872 69.469 47.616C69.213 47.3173 69.085 46.9547 69.085 46.528V43.776C68.5303 44.544 67.7837 45.312 66.845 46.08C65.9063 46.8053 64.733 47.424 63.325 47.936C61.917 48.4053 60.189 48.64 58.141 48.64ZM59.485 43.84C61.2343 43.84 62.8343 43.4773 64.285 42.752C65.7357 41.984 66.8663 40.8107 67.677 39.232C68.5303 37.6533 68.957 35.6693 68.957 33.28V31.488L61.533 32.576C58.5037 33.0027 56.221 33.728 54.685 34.752C53.149 35.7333 52.381 36.992 52.381 38.528C52.381 39.7227 52.7223 40.7253 53.405 41.536C54.1303 42.304 55.0263 42.88 56.093 43.264C57.2023 43.648 58.333 43.84 59.485 43.84ZM92.8805 48C92.3258 48 91.8992 47.872 91.6005 47.616C91.3018 47.3173 91.0458 46.912 90.8325 46.4L81.7445 16.704C81.6592 16.4907 81.6165 16.2773 81.6165 16.064C81.6165 15.68 81.7445 15.36 82.0005 15.104C82.2992 14.848 82.6192 14.72 82.9605 14.72H85.7765C86.2458 14.72 86.6085 14.848 86.8645 15.104C87.1205 15.36 87.2912 15.5947 87.3765 15.808L94.4805 39.936L102.097 16.064C102.182 15.7653 102.353 15.4667 102.609 15.168C102.907 14.8693 103.334 14.72 103.889 14.72H106.065C106.619 14.72 107.046 14.8693 107.345 15.168C107.643 15.4667 107.814 15.7653 107.857 16.064L115.472 39.936L122.577 15.808C122.619 15.5947 122.769 15.36 123.025 15.104C123.281 14.848 123.643 14.72 124.113 14.72H126.929C127.313 14.72 127.633 14.848 127.889 15.104C128.145 15.36 128.273 15.68 128.273 16.064C128.273 16.2773 128.23 16.4907 128.145 16.704L119.057 46.4C118.929 46.912 118.694 47.3173 118.353 47.616C118.054 47.872 117.606 48 117.009 48H114.513C113.958 48 113.488 47.872 113.104 47.616C112.763 47.3173 112.529 46.912 112.401 46.4L104.977 23.488L97.5525 46.4C97.3818 46.912 97.1258 47.3173 96.7845 47.616C96.4432 47.872 95.9738 48 95.3765 48H92.8805ZM136.897 48C136.47 48 136.108 47.872 135.809 47.616C135.553 47.3173 135.425 46.9547 135.425 46.528V4.032C135.425 3.60533 135.553 3.264 135.809 3.008C136.108 2.70933 136.47 2.56 136.897 2.56H139.905C140.374 2.56 140.737 2.70933 140.993 3.008C141.249 3.264 141.377 3.60533 141.377 4.032V46.528C141.377 46.9547 141.249 47.3173 140.993 47.616C140.737 47.872 140.374 48 139.905 48H136.897ZM160.204 48.64C158.07 48.64 156.129 48.2133 154.38 47.36C152.63 46.5067 151.222 45.3547 150.156 43.904C149.089 42.4533 148.556 40.8107 148.556 38.976C148.556 36.032 149.75 33.6853 152.14 31.936C154.529 30.1867 157.644 29.0347 161.484 28.48L171.02 27.136V25.28C171.02 23.232 170.422 21.632 169.228 20.48C168.076 19.328 166.177 18.752 163.532 18.752C161.612 18.752 160.054 19.136 158.86 19.904C157.708 20.672 156.897 21.6533 156.428 22.848C156.172 23.488 155.724 23.808 155.084 23.808H152.204C151.734 23.808 151.372 23.68 151.116 23.424C150.902 23.1253 150.796 22.784 150.796 22.4C150.796 21.76 151.03 20.9707 151.5 20.032C152.012 19.0933 152.78 18.176 153.804 17.28C154.828 16.384 156.129 15.6373 157.708 15.04C159.329 14.4 161.292 14.08 163.596 14.08C166.156 14.08 168.31 14.4213 170.06 15.104C171.809 15.744 173.174 16.6187 174.156 17.728C175.18 18.8373 175.905 20.096 176.332 21.504C176.801 22.912 177.036 24.3413 177.036 25.792V46.528C177.036 46.9547 176.886 47.3173 176.588 47.616C176.332 47.872 175.99 48 175.564 48H172.62C172.15 48 171.788 47.872 171.532 47.616C171.276 47.3173 171.148 46.9547 171.148 46.528V43.776C170.593 44.544 169.846 45.312 168.908 46.08C167.969 46.8053 166.796 47.424 165.388 47.936C163.98 48.4053 162.252 48.64 160.204 48.64ZM161.548 43.84C163.297 43.84 164.897 43.4773 166.348 42.752C167.798 41.984 168.929 40.8107 169.74 39.232C170.593 37.6533 171.02 35.6693 171.02 33.28V31.488L163.596 32.576C160.566 33.0027 158.284 33.728 156.748 34.752C155.212 35.7333 154.444 36.992 154.444 38.528C154.444 39.7227 154.785 40.7253 155.468 41.536C156.193 42.304 157.089 42.88 158.156 43.264C159.265 43.648 160.396 43.84 161.548 43.84ZM198.916 48C196.526 48 194.585 47.552 193.092 46.656C191.598 45.7173 190.51 44.416 189.828 42.752C189.145 41.0453 188.804 39.04 188.804 36.736V19.84H183.812C183.385 19.84 183.022 19.712 182.724 19.456C182.468 19.1573 182.34 18.7947 182.34 18.368V16.192C182.34 15.7653 182.468 15.424 182.724 15.168C183.022 14.8693 183.385 14.72 183.812 14.72H188.804V4.032C188.804 3.60533 188.932 3.264 189.188 3.008C189.486 2.70933 189.849 2.56 190.276 2.56H193.284C193.71 2.56 194.052 2.70933 194.308 3.008C194.606 3.264 194.756 3.60533 194.756 4.032V14.72H202.692C203.118 14.72 203.46 14.8693 203.716 15.168C204.014 15.424 204.164 15.7653 204.164 16.192V18.368C204.164 18.7947 204.014 19.1573 203.716 19.456C203.46 19.712 203.118 19.84 202.692 19.84H194.756V36.288C194.756 38.2933 195.097 39.872 195.78 41.024C196.462 42.176 197.678 42.752 199.428 42.752H203.332C203.758 42.752 204.1 42.9013 204.356 43.2C204.654 43.456 204.804 43.7973 204.804 44.224V46.528C204.804 46.9547 204.654 47.3173 204.356 47.616C204.1 47.872 203.758 48 203.332 48H198.916Z" fill="#359081"/>
<path d="M35.9067 64.6257C35.16 64.6257 34.4774 64.4871 33.8587 64.2097C33.24 63.9217 32.696 63.5377 32.2267 63.0577L32.9787 62.1937C33.352 62.5884 33.7947 62.8977 34.3067 63.1217C34.8294 63.3457 35.368 63.4577 35.9227 63.4577C36.616 63.4577 37.1547 63.3031 37.5387 62.9937C37.9227 62.6737 38.1147 62.2577 38.1147 61.7457C38.1147 61.3831 38.0347 61.0951 37.8747 60.8817C37.7254 60.6684 37.5174 60.4871 37.2507 60.3377C36.9947 60.1884 36.7014 60.0391 36.3707 59.8897L34.8667 59.2337C34.5254 59.0844 34.1894 58.8977 33.8587 58.6737C33.5387 58.4497 33.272 58.1671 33.0587 57.8257C32.8454 57.4737 32.7387 57.0417 32.7387 56.5297C32.7387 55.9964 32.8774 55.5217 33.1547 55.1057C33.4427 54.6791 33.832 54.3484 34.3227 54.1137C34.824 53.8684 35.3947 53.7457 36.0347 53.7457C36.6747 53.7457 37.2614 53.8631 37.7947 54.0977C38.328 54.3324 38.776 54.6364 39.1387 55.0097L38.4187 55.8737C38.088 55.5857 37.7254 55.3564 37.3307 55.1857C36.936 55.0044 36.504 54.9137 36.0347 54.9137C35.448 54.9137 34.9734 55.0524 34.6107 55.3297C34.2587 55.6071 34.0827 55.9804 34.0827 56.4497C34.0827 56.7804 34.168 57.0524 34.3387 57.2657C34.5094 57.4791 34.728 57.6551 34.9947 57.7937C35.272 57.9324 35.5494 58.0657 35.8267 58.1937L37.3147 58.8337C37.7307 59.0151 38.0987 59.2231 38.4187 59.4577C38.7494 59.6924 39.0054 59.9857 39.1867 60.3377C39.3787 60.6897 39.4747 61.1217 39.4747 61.6337C39.4747 62.1884 39.3307 62.6951 39.0427 63.1537C38.7654 63.6017 38.3547 63.9591 37.8107 64.2257C37.2774 64.4924 36.6427 64.6257 35.9067 64.6257ZM45.4136 64.6257C44.5389 64.6257 43.7602 64.4017 43.0776 63.9537C42.4056 63.5057 41.8776 62.8711 41.4936 62.0497C41.1202 61.2284 40.9336 60.2577 40.9336 59.1377C40.9336 58.0177 41.1202 57.0577 41.4936 56.2577C41.8776 55.4471 42.4056 54.8284 43.0776 54.4017C43.7602 53.9644 44.5389 53.7457 45.4136 53.7457C46.2989 53.7457 47.0776 53.9644 47.7496 54.4017C48.4216 54.8284 48.9496 55.4471 49.3336 56.2577C49.7176 57.0577 49.9096 58.0177 49.9096 59.1377C49.9096 60.2577 49.7176 61.2284 49.3336 62.0497C48.9496 62.8711 48.4216 63.5057 47.7496 63.9537C47.0776 64.4017 46.2989 64.6257 45.4136 64.6257ZM45.4136 63.4417C46.0429 63.4417 46.5869 63.2657 47.0456 62.9137C47.5149 62.5617 47.8776 62.0657 48.1336 61.4257C48.3896 60.7751 48.5176 60.0124 48.5176 59.1377C48.5176 58.2737 48.3896 57.5271 48.1336 56.8977C47.8776 56.2684 47.5149 55.7831 47.0456 55.4417C46.5869 55.0897 46.0429 54.9137 45.4136 54.9137C44.7949 54.9137 44.2509 55.0897 43.7816 55.4417C43.3122 55.7831 42.9496 56.2684 42.6936 56.8977C42.4376 57.5271 42.3096 58.2737 42.3096 59.1377C42.3096 60.0124 42.4376 60.7751 42.6936 61.4257C42.9496 62.0657 43.3122 62.5617 43.7816 62.9137C44.2509 63.2657 44.7949 63.4417 45.4136 63.4417ZM52.1666 64.4337V53.9377H58.2146V55.0577H53.4946V58.6097H57.4946V59.7297H53.4946V64.4337H52.1666ZM62.2488 64.4337V55.0737H59.0808V53.9377H66.7608V55.0737H63.5928V64.4337H62.2488ZM69.7549 64.4337L67.5789 53.9377H69.0029L70.0749 59.6497C70.1816 60.2151 70.2829 60.7804 70.3789 61.3457C70.4749 61.9111 70.5656 62.4924 70.6509 63.0897H70.7149C70.8216 62.4924 70.9336 61.9111 71.0509 61.3457C71.1789 60.7804 71.3069 60.2151 71.4349 59.6497L72.8589 53.9377H74.2029L75.5789 59.6497C75.7069 60.2044 75.8349 60.7697 75.9629 61.3457C76.0909 61.9111 76.2136 62.4924 76.3309 63.0897H76.3949C76.4803 62.4924 76.5709 61.9111 76.6669 61.3457C76.7629 60.7804 76.8589 60.2151 76.9549 59.6497L78.0589 53.9377H79.4189L77.2269 64.4337H75.5149L74.0109 58.1297C73.9256 57.7351 73.8403 57.3404 73.7549 56.9457C73.6803 56.5404 73.6056 56.1137 73.5309 55.6657H73.4669C73.4029 56.1137 73.3283 56.5404 73.2429 56.9457C73.1683 57.3404 73.0883 57.7351 73.0029 58.1297L71.4669 64.4337H69.7549ZM79.8371 64.4337L83.3891 53.9377H84.8931L88.4451 64.4337H87.0371L85.1971 58.5617C85.0051 57.9751 84.8237 57.3937 84.6531 56.8177C84.4824 56.2311 84.3117 55.6337 84.1411 55.0257H84.0771C83.9171 55.6337 83.7517 56.2311 83.5811 56.8177C83.4104 57.3937 83.2291 57.9751 83.0371 58.5617L81.1811 64.4337H79.8371ZM81.6931 61.2337V60.1777H86.5411V61.2337H81.6931ZM89.9166 64.4337V53.9377H93.1966C93.9112 53.9377 94.5459 54.0337 95.1006 54.2257C95.6552 54.4071 96.0872 54.7164 96.3966 55.1537C96.7166 55.5804 96.8766 56.1564 96.8766 56.8817C96.8766 57.5857 96.7166 58.1671 96.3966 58.6257C96.0872 59.0844 95.6552 59.4311 95.1006 59.6657C94.5459 59.8897 93.9112 60.0017 93.1966 60.0017H91.2446V64.4337H89.9166ZM91.2446 58.9137H93.0046C93.8259 58.9137 94.4552 58.7484 94.8926 58.4177C95.3299 58.0764 95.5486 57.5644 95.5486 56.8817C95.5486 56.1991 95.3299 55.7191 94.8926 55.4417C94.4552 55.1537 93.8259 55.0097 93.0046 55.0097H91.2446V58.9137ZM95.6766 64.4337L92.9406 59.6337L93.9806 58.9297L97.1806 64.4337H95.6766ZM99.0259 64.4337V53.9377H105.074V55.0577H100.354V58.3537H104.338V59.4897H100.354V63.2977H105.234V64.4337H99.0259ZM110.667 64.4337V53.9377H116.715V55.0577H111.995V58.3537H115.979V59.4897H111.995V63.2977H116.875V64.4337H110.667ZM119.104 64.4337V53.9377H120.56L124.288 60.4657C124.491 60.8177 124.683 61.1857 124.864 61.5697C125.045 61.9431 125.227 62.3271 125.408 62.7217H125.472C125.44 62.1777 125.403 61.6231 125.36 61.0577C125.317 60.4817 125.296 59.9271 125.296 59.3937V53.9377H126.576V64.4337H125.12L121.392 57.9057C121.2 57.5537 121.003 57.1857 120.8 56.8017C120.608 56.4177 120.427 56.0337 120.256 55.6497H120.192C120.235 56.1724 120.272 56.7111 120.304 57.2657C120.347 57.8204 120.368 58.3804 120.368 58.9457V64.4337H119.104ZM133.591 64.6257C132.663 64.6257 131.842 64.4124 131.127 63.9857C130.423 63.5484 129.869 62.9244 129.463 62.1137C129.058 61.3031 128.855 60.3271 128.855 59.1857C128.855 58.3431 128.973 57.5857 129.207 56.9137C129.453 56.2417 129.789 55.6711 130.215 55.2017C130.653 54.7217 131.165 54.3591 131.751 54.1137C132.338 53.8684 132.978 53.7457 133.671 53.7457C134.397 53.7457 135.005 53.8791 135.495 54.1457C135.997 54.4124 136.397 54.7111 136.695 55.0417L135.959 55.8737C135.703 55.5964 135.394 55.3671 135.031 55.1857C134.679 55.0044 134.237 54.9137 133.703 54.9137C132.999 54.9137 132.386 55.0897 131.863 55.4417C131.341 55.7831 130.935 56.2684 130.647 56.8977C130.37 57.5271 130.231 58.2791 130.231 59.1537C130.231 60.0391 130.365 60.8017 130.631 61.4417C130.909 62.0817 131.303 62.5777 131.815 62.9297C132.338 63.2817 132.973 63.4577 133.719 63.4577C134.093 63.4577 134.45 63.4044 134.791 63.2977C135.133 63.1804 135.405 63.0257 135.607 62.8337V60.0977H133.383V58.9937H136.823V63.4097C136.493 63.7617 136.045 64.0551 135.479 64.2897C134.925 64.5137 134.295 64.6257 133.591 64.6257ZM139.338 64.4337V53.9377H140.666V64.4337H139.338ZM143.542 64.4337V53.9377H144.998L148.726 60.4657C148.928 60.8177 149.12 61.1857 149.302 61.5697C149.483 61.9431 149.664 62.3271 149.846 62.7217H149.91C149.878 62.1777 149.84 61.6231 149.798 61.0577C149.755 60.4817 149.734 59.9271 149.734 59.3937V53.9377H151.014V64.4337H149.558L145.83 57.9057C145.638 57.5537 145.44 57.1857 145.238 56.8017C145.046 56.4177 144.864 56.0337 144.694 55.6497H144.63C144.672 56.1724 144.71 56.7111 144.742 57.2657C144.784 57.8204 144.806 58.3804 144.806 58.9457V64.4337H143.542ZM153.901 64.4337V53.9377H159.949V55.0577H155.229V58.3537H159.213V59.4897H155.229V63.2977H160.109V64.4337H153.901ZM162.338 64.4337V53.9377H168.386V55.0577H163.666V58.3537H167.65V59.4897H163.666V63.2977H168.546V64.4337H162.338ZM170.776 64.4337V53.9377H174.056C174.771 53.9377 175.405 54.0337 175.96 54.2257C176.515 54.4071 176.947 54.7164 177.256 55.1537C177.576 55.5804 177.736 56.1564 177.736 56.8817C177.736 57.5857 177.576 58.1671 177.256 58.6257C176.947 59.0844 176.515 59.4311 175.96 59.6657C175.405 59.8897 174.771 60.0017 174.056 60.0017H172.104V64.4337H170.776ZM172.104 58.9137H173.864C174.685 58.9137 175.315 58.7484 175.752 58.4177C176.189 58.0764 176.408 57.5644 176.408 56.8817C176.408 56.1991 176.189 55.7191 175.752 55.4417C175.315 55.1537 174.685 55.0097 173.864 55.0097H172.104V58.9137ZM176.536 64.4337L173.8 59.6337L174.84 58.9297L178.04 64.4337H176.536Z" fill="#359081"/>
<rect x="5.97156" y="58" width="23.8863" height="1.61446" fill="#359081"/>
<rect x="180.142" y="58" width="23.8863" height="1.61446" fill="#359081"/>
</svg>
